<svg width="18" height="19" viewBox="0 0 18 19" fill="none" xmlns="http://www.w3.org/2000/svg">
<path d="M4.59988 2L3.75789 7.89393C3.53137 9.4796 4.14923 10.8418 5.16838 11.7849C5.99701 12.5516 7.09461 13.0489 8.25037 13.2007V15.5H4.50035V17H13.5004V15.5H9.75037V13.2007C10.9061 13.0489 12.0037 12.5516 12.8323 11.7849C13.8514 10.8418 14.4693 9.4796 14.2428 7.89393L13.4008 2H4.59988ZM5.24281 8.10605L5.90082 3.5H12.0999L12.7579 8.10605C12.9064 9.1454 12.5169 10.0332 11.8135 10.6839C11.0976 11.3463 10.0633 11.75 9.00037 11.75C7.93732 11.75 6.90309 11.3463 6.18711 10.6839C5.48383 10.0332 5.09434 9.1454 5.24281 8.10605Z" fill="white"/>
</svg>
