<svg width="18" height="17" viewBox="0 0 18 17" fill="none" xmlns="http://www.w3.org/2000/svg">
<path d="M1.59498 2.09132C3.62572 0.0605717 6.86131 -0.030998 9.00071 1.81661C11.1387 -0.030998 14.3743 0.0605717 16.405 2.09132C18.4321 4.11843 18.527 7.34611 16.6896 9.48555L10.1848 16.0128C9.56018 16.6374 8.56515 16.6658 7.9069 16.0979L7.81525 16.0128L1.31037 9.48555C-0.527001 7.34611 -0.432131 4.11843 1.59498 2.09132ZM2.77978 3.27612C1.34956 4.70634 1.3087 6.99977 2.6572 8.47938L2.77978 8.60773L9.00004 14.8279L13.4425 10.3843L10.481 7.42293L9.59244 8.31157C8.61089 9.29303 7.01952 9.29303 6.038 8.31157C5.05647 7.33002 5.05647 5.73865 6.038 4.75713L7.79832 2.99569C6.36347 1.847 4.28395 1.89962 2.90818 3.15353L2.77978 3.27612ZM9.88859 5.64573C10.2157 5.31855 10.7462 5.31855 11.0734 5.64573L14.6273 9.19954L15.2202 8.60773C16.6925 7.13549 16.6925 4.74841 15.2202 3.27612C13.79 1.8459 11.4966 1.80504 10.017 3.15353L9.88859 3.27612L7.2228 5.94193C6.91899 6.24574 6.89729 6.72482 7.1577 7.05364L7.2228 7.12678C7.52663 7.43056 8.00567 7.45225 8.3345 7.19187L8.40764 7.12678L9.88859 5.64573Z" fill="black"/>
</svg>
