<svg width="106" height="44" viewBox="0 0 106 44" fill="none" xmlns="http://www.w3.org/2000/svg">
<path d="M7.82134 18.108C6.05734 18.108 4.71934 17.64 3.80734 16.704C2.90734 15.756 2.45734 14.37 2.45734 12.546V5.652L1.41334 5.436V5.256H6.25534V5.436L5.10334 5.652V12.24C5.10334 13.86 5.40934 15.09 6.02134 15.93C6.64534 16.758 7.55734 17.172 8.75734 17.172C9.86134 17.172 10.6953 16.806 11.2593 16.074C11.8233 15.342 12.1053 14.274 12.1053 12.87V10.71C12.1053 10.158 12.0333 9.618 11.8893 9.09C11.7453 8.562 11.5413 8.07 11.2773 7.614C11.0133 7.146 10.6953 6.726 10.3233 6.354C9.95134 5.982 9.53134 5.676 9.06334 5.436V5.256H13.6893V5.436L12.4293 5.652V12.42C12.4293 14.28 12.0453 15.696 11.2773 16.668C10.5213 17.628 9.36934 18.108 7.82134 18.108ZM14.7392 18V17.82L15.7112 17.586V9.576H14.6672V9.378L18.2312 8.73V11.556L18.3752 11.7C18.5432 11.304 18.7052 10.95 18.8612 10.638C19.0292 10.314 19.1972 10.05 19.3652 9.846C19.6532 9.462 19.9652 9.18 20.3012 9C20.6492 8.82 21.0332 8.73 21.4532 8.73C21.7412 8.73 22.0172 8.79 22.2812 8.91C22.5452 9.018 22.7612 9.192 22.9292 9.432C23.0972 9.66 23.1812 9.954 23.1812 10.314C23.1812 10.59 23.1092 10.842 22.9652 11.07C22.8212 11.298 22.6232 11.478 22.3712 11.61C22.1192 11.742 21.8132 11.808 21.4532 11.808C21.1412 11.808 20.8592 11.754 20.6072 11.646C20.3552 11.526 20.1572 11.37 20.0132 11.178C19.8812 10.974 19.8152 10.746 19.8152 10.494C19.8152 10.398 19.8212 10.314 19.8332 10.242C19.8572 10.158 19.8752 10.08 19.8872 10.008C19.9112 9.936 19.9232 9.87 19.9232 9.81C19.9232 9.726 19.8932 9.684 19.8332 9.684C19.7252 9.684 19.5932 9.786 19.4372 9.99C19.2932 10.194 19.1192 10.506 18.9152 10.926C18.8072 11.166 18.6932 11.442 18.5732 11.754C18.4532 12.066 18.3392 12.396 18.2312 12.744V17.586L19.2212 17.82V18H14.7392ZM24.9573 18.27V5.436H23.9133V5.238L27.4773 4.59V11.592L27.6213 11.736C27.8013 11.28 28.0053 10.872 28.2333 10.512C28.4733 10.14 28.7373 9.822 29.0253 9.558C29.3133 9.294 29.6313 9.09 29.9793 8.946C30.3273 8.802 30.7053 8.73 31.1133 8.73C31.6773 8.73 32.1633 8.844 32.5713 9.072C32.9913 9.3 33.3393 9.624 33.6153 10.044C33.8913 10.452 34.0893 10.926 34.2093 11.466C34.3413 12.006 34.4073 12.582 34.4073 13.194C34.4073 14.082 34.2813 14.85 34.0293 15.498C33.7893 16.134 33.4533 16.662 33.0213 17.082C32.5893 17.49 32.0913 17.79 31.5273 17.982C30.9633 18.174 30.3633 18.27 29.7273 18.27C29.2833 18.27 28.8813 18.216 28.5213 18.108C28.1613 18.012 27.8313 17.88 27.5313 17.712C27.2433 17.532 26.9793 17.328 26.7393 17.1C26.5113 16.872 26.3073 16.632 26.1273 16.38H25.9473L25.1373 18.27H24.9573ZM29.6193 18C30.1113 18 30.5193 17.814 30.8433 17.442C31.1793 17.058 31.4313 16.53 31.5993 15.858C31.7673 15.186 31.8513 14.418 31.8513 13.554C31.8513 12.69 31.7853 11.976 31.6533 11.412C31.5213 10.848 31.3173 10.428 31.0413 10.152C30.7653 9.864 30.4173 9.72 29.9973 9.72C29.6733 9.72 29.3493 9.852 29.0253 10.116C28.7013 10.38 28.4073 10.74 28.1433 11.196C27.8793 11.652 27.6573 12.174 27.4773 12.762V14.868C27.4773 15.444 27.5433 15.936 27.6753 16.344C27.8193 16.74 27.9993 17.064 28.2153 17.316C28.4313 17.556 28.6653 17.73 28.9173 17.838C29.1693 17.946 29.4033 18 29.6193 18ZM40.8738 8.73C41.5938 8.73 42.2118 8.808 42.7278 8.964C43.2558 9.12 43.6878 9.36 44.0238 9.684C44.3598 10.008 44.6058 10.416 44.7618 10.908C44.9178 11.4 44.9958 11.976 44.9958 12.636V17.388C44.9958 17.532 45.0258 17.646 45.0858 17.73C45.1578 17.814 45.2538 17.856 45.3738 17.856C45.4938 17.856 45.6378 17.82 45.8058 17.748C45.9858 17.676 46.1658 17.58 46.3458 17.46V17.64C46.1898 17.76 46.0038 17.868 45.7878 17.964C45.5838 18.06 45.3618 18.132 45.1218 18.18C44.8938 18.24 44.6658 18.27 44.4378 18.27C43.8378 18.27 43.3578 18.114 42.9978 17.802C42.6498 17.478 42.4758 16.956 42.4758 16.236C42.4758 16.044 42.4758 15.906 42.4758 15.822C42.4758 15.726 42.4758 15.654 42.4758 15.606C42.4758 15.546 42.4758 15.48 42.4758 15.408L42.3318 15.3C42.1038 15.768 41.8338 16.188 41.5218 16.56C41.2218 16.92 40.8858 17.232 40.5138 17.496C40.1418 17.748 39.7578 17.94 39.3618 18.072C38.9658 18.204 38.5698 18.27 38.1738 18.27C37.7298 18.27 37.3278 18.192 36.9678 18.036C36.6078 17.88 36.3198 17.652 36.1038 17.352C35.8878 17.052 35.7798 16.686 35.7798 16.254C35.7798 15.246 36.3498 14.472 37.4898 13.932C38.6418 13.38 40.3038 13.104 42.4758 13.104C42.4758 12.084 42.4038 11.28 42.2598 10.692C42.1158 10.104 41.8638 9.684 41.5038 9.432C41.1558 9.18 40.6518 9.054 39.9918 9.054C39.5958 9.054 39.2418 9.096 38.9298 9.18C38.6178 9.252 38.3718 9.336 38.1918 9.432C38.0118 9.528 37.9218 9.618 37.9218 9.702C37.9218 9.762 37.9878 9.828 38.1198 9.9C38.2518 9.972 38.4798 10.068 38.8038 10.188C39.4398 10.416 39.7578 10.758 39.7578 11.214C39.7578 11.598 39.5838 11.898 39.2358 12.114C38.8878 12.318 38.4618 12.42 37.9578 12.42C37.4658 12.42 37.0458 12.318 36.6978 12.114C36.3618 11.898 36.1938 11.586 36.1938 11.178C36.1938 10.878 36.3198 10.584 36.5718 10.296C36.8238 10.008 37.1658 9.744 37.5978 9.504C38.0418 9.264 38.5458 9.078 39.1098 8.946C39.6738 8.802 40.2618 8.73 40.8738 8.73ZM42.4758 13.32C41.4678 13.32 40.6398 13.452 39.9918 13.716C39.3438 13.98 38.8638 14.322 38.5518 14.742C38.2398 15.15 38.0838 15.594 38.0838 16.074C38.0838 16.362 38.1378 16.602 38.2458 16.794C38.3538 16.974 38.4978 17.112 38.6778 17.208C38.8578 17.292 39.0678 17.334 39.3078 17.334C39.5718 17.334 39.8478 17.28 40.1358 17.172C40.4358 17.064 40.7298 16.896 41.0178 16.668C41.3058 16.44 41.5758 16.152 41.8278 15.804C42.0918 15.456 42.3078 15.036 42.4758 14.544V13.32ZM58.4359 17.82V18H53.9179V17.82L54.8719 17.64V11.538C54.8719 10.902 54.7639 10.422 54.5479 10.098C54.3319 9.774 54.0199 9.612 53.6119 9.612C53.3359 9.612 53.0539 9.72 52.7659 9.936C52.4899 10.14 52.2199 10.41 51.9559 10.746C51.7039 11.07 51.4759 11.406 51.2719 11.754C51.0679 12.102 50.9059 12.42 50.7859 12.708V17.64L51.7399 17.82V18H47.2939V17.82L48.2659 17.64V9.576H47.2219V9.378L50.7859 8.73V11.682L50.9299 11.808C51.2299 11.196 51.5659 10.662 51.9379 10.206C52.3219 9.738 52.7479 9.378 53.2159 9.126C53.6839 8.862 54.1999 8.73 54.7639 8.73C55.2559 8.73 55.6699 8.808 56.0059 8.964C56.3419 9.108 56.6059 9.324 56.7979 9.612C57.0019 9.888 57.1519 10.224 57.2479 10.62C57.3439 11.004 57.3919 11.43 57.3919 11.898V17.64L58.4359 17.82ZM66.1063 18V17.82L67.1503 17.55V5.706L66.1063 5.436V5.256H76.5463L75.9343 9.9H75.7003L74.8543 6.948C74.7103 6.468 74.4883 6.114 74.1883 5.886C73.8883 5.646 73.5583 5.526 73.1983 5.526H69.7963V11.394H71.4523C71.6443 11.394 71.8183 11.346 71.9743 11.25C72.1423 11.154 72.2923 11.028 72.4243 10.872C72.6283 10.656 72.7903 10.374 72.9103 10.026C73.0303 9.678 73.1083 9.318 73.1443 8.946H73.3243V13.5H73.1443L71.5963 11.61H69.7963V17.73H73.3423C73.7503 17.73 74.1163 17.58 74.4403 17.28C74.7643 16.968 75.0103 16.524 75.1783 15.948L75.7003 13.212H75.9343L76.5463 18H66.1063ZM83.3777 8.73C84.0977 8.73 84.7157 8.808 85.2317 8.964C85.7597 9.12 86.1917 9.36 86.5277 9.684C86.8637 10.008 87.1097 10.416 87.2657 10.908C87.4217 11.4 87.4997 11.976 87.4997 12.636V17.388C87.4997 17.532 87.5297 17.646 87.5897 17.73C87.6617 17.814 87.7577 17.856 87.8777 17.856C87.9977 17.856 88.1417 17.82 88.3097 17.748C88.4897 17.676 88.6697 17.58 88.8497 17.46V17.64C88.6937 17.76 88.5077 17.868 88.2917 17.964C88.0877 18.06 87.8657 18.132 87.6257 18.18C87.3977 18.24 87.1697 18.27 86.9417 18.27C86.3417 18.27 85.8617 18.114 85.5017 17.802C85.1537 17.478 84.9797 16.956 84.9797 16.236C84.9797 16.044 84.9797 15.906 84.9797 15.822C84.9797 15.726 84.9797 15.654 84.9797 15.606C84.9797 15.546 84.9797 15.48 84.9797 15.408L84.8357 15.3C84.6077 15.768 84.3377 16.188 84.0257 16.56C83.7257 16.92 83.3897 17.232 83.0177 17.496C82.6457 17.748 82.2617 17.94 81.8657 18.072C81.4697 18.204 81.0737 18.27 80.6777 18.27C80.2337 18.27 79.8317 18.192 79.4717 18.036C79.1117 17.88 78.8237 17.652 78.6077 17.352C78.3917 17.052 78.2837 16.686 78.2837 16.254C78.2837 15.246 78.8537 14.472 79.9937 13.932C81.1457 13.38 82.8077 13.104 84.9797 13.104C84.9797 12.084 84.9077 11.28 84.7637 10.692C84.6197 10.104 84.3677 9.684 84.0077 9.432C83.6597 9.18 83.1557 9.054 82.4957 9.054C82.0997 9.054 81.7457 9.096 81.4337 9.18C81.1217 9.252 80.8757 9.336 80.6957 9.432C80.5157 9.528 80.4257 9.618 80.4257 9.702C80.4257 9.762 80.4917 9.828 80.6237 9.9C80.7557 9.972 80.9837 10.068 81.3077 10.188C81.9437 10.416 82.2617 10.758 82.2617 11.214C82.2617 11.598 82.0877 11.898 81.7397 12.114C81.3917 12.318 80.9657 12.42 80.4617 12.42C79.9697 12.42 79.5497 12.318 79.2017 12.114C78.8657 11.898 78.6977 11.586 78.6977 11.178C78.6977 10.878 78.8237 10.584 79.0757 10.296C79.3277 10.008 79.6697 9.744 80.1017 9.504C80.5457 9.264 81.0497 9.078 81.6137 8.946C82.1777 8.802 82.7657 8.73 83.3777 8.73ZM84.9797 13.32C83.9717 13.32 83.1437 13.452 82.4957 13.716C81.8477 13.98 81.3677 14.322 81.0557 14.742C80.7437 15.15 80.5877 15.594 80.5877 16.074C80.5877 16.362 80.6417 16.602 80.7497 16.794C80.8577 16.974 81.0017 17.112 81.1817 17.208C81.3617 17.292 81.5717 17.334 81.8117 17.334C82.0757 17.334 82.3517 17.28 82.6397 17.172C82.9397 17.064 83.2337 16.896 83.5217 16.668C83.8097 16.44 84.0797 16.152 84.3317 15.804C84.5957 15.456 84.8117 15.036 84.9797 14.544V13.32ZM92.6598 18.27C91.9038 18.27 91.3638 18.054 91.0398 17.622C90.7158 17.19 90.5538 16.542 90.5538 15.678V9.36H89.3298V9.18L90.5718 9L92.8038 6.048H93.0738V8.838L94.9278 9.18V9.36H93.0738V16.506C93.0738 16.926 93.1338 17.232 93.2538 17.424C93.3858 17.604 93.5598 17.694 93.7758 17.694C93.9678 17.694 94.1538 17.634 94.3338 17.514C94.5138 17.382 94.6938 17.22 94.8738 17.028L94.9278 17.28C94.7958 17.4 94.6398 17.52 94.4598 17.64C94.2918 17.76 94.1118 17.868 93.9198 17.964C93.7278 18.06 93.5238 18.132 93.3078 18.18C93.1038 18.24 92.8878 18.27 92.6598 18.27ZM100.159 18.27C99.6072 18.27 99.0852 18.216 98.5932 18.108C98.1012 18.012 97.6632 17.874 97.2792 17.694C96.9072 17.502 96.6132 17.274 96.3972 17.01C96.1812 16.734 96.0732 16.422 96.0732 16.074C96.0732 15.81 96.1512 15.594 96.3072 15.426C96.4632 15.258 96.6612 15.132 96.9012 15.048C97.1532 14.952 97.4052 14.904 97.6572 14.904C97.9332 14.904 98.1852 14.946 98.4132 15.03C98.6532 15.114 98.8452 15.234 98.9892 15.39C99.1332 15.546 99.2052 15.744 99.2052 15.984C99.2052 16.152 99.1692 16.308 99.0972 16.452C99.0252 16.584 98.9112 16.716 98.7552 16.848C98.5632 16.992 98.4312 17.112 98.3592 17.208C98.2992 17.292 98.2692 17.388 98.2692 17.496C98.2692 17.58 98.3412 17.67 98.4852 17.766C98.6292 17.85 98.8332 17.922 99.0972 17.982C99.3612 18.042 99.6732 18.072 100.033 18.072C100.525 18.072 100.963 18.012 101.347 17.892C101.731 17.772 102.031 17.592 102.247 17.352C102.475 17.1 102.589 16.782 102.589 16.398C102.589 16.086 102.493 15.804 102.301 15.552C102.121 15.3 101.815 15.06 101.383 14.832C100.951 14.604 100.357 14.364 99.6012 14.112C98.7492 13.812 98.0712 13.512 97.5672 13.212C97.0752 12.912 96.7212 12.6 96.5052 12.276C96.3012 11.94 96.1992 11.58 96.1992 11.196C96.1992 10.44 96.5712 9.84 97.3152 9.396C98.0712 8.952 99.0972 8.73 100.393 8.73C101.089 8.73 101.731 8.82 102.319 9C102.907 9.18 103.381 9.432 103.741 9.756C104.101 10.068 104.281 10.446 104.281 10.89C104.281 11.13 104.209 11.334 104.065 11.502C103.921 11.658 103.729 11.778 103.489 11.862C103.261 11.946 103.021 11.988 102.769 11.988C102.577 11.988 102.385 11.964 102.193 11.916C102.001 11.868 101.827 11.802 101.671 11.718C101.515 11.622 101.389 11.508 101.293 11.376C101.197 11.232 101.149 11.076 101.149 10.908C101.149 10.56 101.329 10.26 101.689 10.008C101.881 9.864 102.013 9.75 102.085 9.666C102.157 9.582 102.193 9.498 102.193 9.414C102.193 9.354 102.151 9.294 102.067 9.234C101.995 9.174 101.881 9.126 101.725 9.09C101.581 9.042 101.407 9.006 101.203 8.982C100.999 8.946 100.777 8.928 100.537 8.928C100.045 8.928 99.6012 8.982 99.2052 9.09C98.8092 9.198 98.4912 9.36 98.2512 9.576C98.0232 9.78 97.9092 10.044 97.9092 10.368C97.9092 10.68 98.0292 10.968 98.2692 11.232C98.5092 11.484 98.8452 11.724 99.2772 11.952C99.7212 12.18 100.249 12.402 100.861 12.618C101.761 12.954 102.469 13.266 102.985 13.554C103.513 13.83 103.891 14.118 104.119 14.418C104.347 14.718 104.461 15.054 104.461 15.426C104.461 15.906 104.341 16.32 104.101 16.668C103.873 17.016 103.561 17.31 103.165 17.55C102.769 17.79 102.313 17.97 101.797 18.09C101.281 18.21 100.735 18.27 100.159 18.27ZM7.7744 27.256C8.7224 27.256 9.5144 27.364 10.1504 27.58C10.7984 27.796 11.2844 28.12 11.6084 28.552C11.9444 28.972 12.1124 29.506 12.1124 30.154C12.1124 30.682 11.9864 31.138 11.7344 31.522C11.4944 31.894 11.1764 32.2 10.7804 32.44C10.3964 32.68 9.9704 32.866 9.5024 32.998C9.0344 33.118 8.5784 33.19 8.1344 33.214V33.34C8.7104 33.364 9.2684 33.436 9.8084 33.556C10.3604 33.664 10.8524 33.844 11.2844 34.096C11.7284 34.348 12.0764 34.678 12.3284 35.086C12.5924 35.494 12.7244 35.992 12.7244 36.58C12.7244 37.156 12.6164 37.666 12.4004 38.11C12.1844 38.542 11.8664 38.896 11.4464 39.172C11.0264 39.448 10.4984 39.658 9.8624 39.802C9.2384 39.934 8.5124 40 7.6844 40H1.1864V39.82L2.2304 39.55V27.706L1.1864 27.436V27.256H7.7744ZM7.1804 27.544C6.6404 27.544 6.1784 27.556 5.7944 27.58C5.4104 27.592 5.1044 27.616 4.8764 27.652V39.604C5.2604 39.7 6.0344 39.748 7.1984 39.748C7.7984 39.748 8.3264 39.64 8.7824 39.424C9.2504 39.196 9.6104 38.842 9.8624 38.362C10.1144 37.87 10.2404 37.222 10.2404 36.418C10.2404 35.398 9.9824 34.648 9.4664 34.168C8.9504 33.688 8.1404 33.448 7.0364 33.448L4.7504 33.394V33.214L7.0364 33.16C7.6484 33.148 8.1524 33.028 8.5484 32.8C8.9564 32.56 9.2624 32.218 9.4664 31.774C9.6824 31.33 9.7904 30.79 9.7904 30.154C9.7904 29.326 9.5684 28.684 9.1244 28.228C8.6804 27.772 8.0324 27.544 7.1804 27.544ZM26.2968 29.38C25.9488 29.38 25.6368 29.332 25.3608 29.236C25.0968 29.128 24.8868 28.984 24.7308 28.804C24.5748 28.612 24.4968 28.396 24.4968 28.156C24.4968 27.916 24.5748 27.706 24.7308 27.526C24.8868 27.334 25.0968 27.19 25.3608 27.094C25.6368 26.986 25.9488 26.932 26.2968 26.932C26.6568 26.932 26.9688 26.986 27.2328 27.094C27.5088 27.19 27.7248 27.334 27.8808 27.526C28.0368 27.706 28.1148 27.916 28.1148 28.156C28.1148 28.396 28.0368 28.612 27.8808 28.804C27.7248 28.984 27.5088 29.128 27.2328 29.236C26.9688 29.332 26.6568 29.38 26.2968 29.38ZM24.1548 40V39.82L25.1268 39.64V31.576H24.0648V31.378L27.6468 30.73V39.64L28.6188 39.82V40H24.1548ZM44.0245 40.27C43.4725 40.27 42.9505 40.216 42.4585 40.108C41.9665 40.012 41.5285 39.874 41.1445 39.694C40.7725 39.502 40.4785 39.274 40.2625 39.01C40.0465 38.734 39.9385 38.422 39.9385 38.074C39.9385 37.81 40.0165 37.594 40.1725 37.426C40.3285 37.258 40.5265 37.132 40.7665 37.048C41.0185 36.952 41.2705 36.904 41.5225 36.904C41.7985 36.904 42.0505 36.946 42.2785 37.03C42.5185 37.114 42.7105 37.234 42.8545 37.39C42.9985 37.546 43.0705 37.744 43.0705 37.984C43.0705 38.152 43.0345 38.308 42.9625 38.452C42.8905 38.584 42.7765 38.716 42.6205 38.848C42.4285 38.992 42.2965 39.112 42.2245 39.208C42.1645 39.292 42.1345 39.388 42.1345 39.496C42.1345 39.58 42.2065 39.67 42.3505 39.766C42.4945 39.85 42.6985 39.922 42.9625 39.982C43.2265 40.042 43.5385 40.072 43.8985 40.072C44.3905 40.072 44.8285 40.012 45.2125 39.892C45.5965 39.772 45.8965 39.592 46.1125 39.352C46.3405 39.1 46.4545 38.782 46.4545 38.398C46.4545 38.086 46.3585 37.804 46.1665 37.552C45.9865 37.3 45.6805 37.06 45.2485 36.832C44.8165 36.604 44.2225 36.364 43.4665 36.112C42.6145 35.812 41.9365 35.512 41.4325 35.212C40.9405 34.912 40.5865 34.6 40.3705 34.276C40.1665 33.94 40.0645 33.58 40.0645 33.196C40.0645 32.44 40.4365 31.84 41.1805 31.396C41.9365 30.952 42.9625 30.73 44.2585 30.73C44.9545 30.73 45.5965 30.82 46.1845 31C46.7725 31.18 47.2465 31.432 47.6065 31.756C47.9665 32.068 48.1465 32.446 48.1465 32.89C48.1465 33.13 48.0745 33.334 47.9305 33.502C47.7865 33.658 47.5945 33.778 47.3545 33.862C47.1265 33.946 46.8865 33.988 46.6345 33.988C46.4425 33.988 46.2505 33.964 46.0585 33.916C45.8665 33.868 45.6925 33.802 45.5365 33.718C45.3805 33.622 45.2545 33.508 45.1585 33.376C45.0625 33.232 45.0145 33.076 45.0145 32.908C45.0145 32.56 45.1945 32.26 45.5545 32.008C45.7465 31.864 45.8785 31.75 45.9505 31.666C46.0225 31.582 46.0585 31.498 46.0585 31.414C46.0585 31.354 46.0165 31.294 45.9325 31.234C45.8605 31.174 45.7465 31.126 45.5905 31.09C45.4465 31.042 45.2725 31.006 45.0685 30.982C44.8645 30.946 44.6425 30.928 44.4025 30.928C43.9105 30.928 43.4665 30.982 43.0705 31.09C42.6745 31.198 42.3565 31.36 42.1165 31.576C41.8885 31.78 41.7745 32.044 41.7745 32.368C41.7745 32.68 41.8945 32.968 42.1345 33.232C42.3745 33.484 42.7105 33.724 43.1425 33.952C43.5865 34.18 44.1145 34.402 44.7265 34.618C45.6265 34.954 46.3345 35.266 46.8505 35.554C47.3785 35.83 47.7565 36.118 47.9845 36.418C48.2125 36.718 48.3265 37.054 48.3265 37.426C48.3265 37.906 48.2065 38.32 47.9665 38.668C47.7385 39.016 47.4265 39.31 47.0305 39.55C46.6345 39.79 46.1785 39.97 45.6625 40.09C45.1465 40.21 44.6005 40.27 44.0245 40.27ZM62.5739 40.27C61.8179 40.27 61.2779 40.054 60.9539 39.622C60.6299 39.19 60.4679 38.542 60.4679 37.678V31.36H59.2439V31.18L60.4859 31L62.7179 28.048H62.9879V30.838L64.8419 31.18V31.36H62.9879V38.506C62.9879 38.926 63.0479 39.232 63.1679 39.424C63.2999 39.604 63.4739 39.694 63.6899 39.694C63.8819 39.694 64.0679 39.634 64.2479 39.514C64.4279 39.382 64.6079 39.22 64.7879 39.028L64.8419 39.28C64.7099 39.4 64.5539 39.52 64.3739 39.64C64.2059 39.76 64.0259 39.868 63.8339 39.964C63.6419 40.06 63.4379 40.132 63.2219 40.18C63.0179 40.24 62.8019 40.27 62.5739 40.27ZM75.9873 40V39.82L76.9593 39.586V31.576H75.9153V31.378L79.4793 30.73V33.556L79.6233 33.7C79.7913 33.304 79.9533 32.95 80.1093 32.638C80.2773 32.314 80.4453 32.05 80.6133 31.846C80.9013 31.462 81.2133 31.18 81.5493 31C81.8973 30.82 82.2813 30.73 82.7013 30.73C82.9893 30.73 83.2653 30.79 83.5293 30.91C83.7933 31.018 84.0093 31.192 84.1773 31.432C84.3453 31.66 84.4293 31.954 84.4293 32.314C84.4293 32.59 84.3573 32.842 84.2133 33.07C84.0693 33.298 83.8713 33.478 83.6193 33.61C83.3673 33.742 83.0613 33.808 82.7013 33.808C82.3893 33.808 82.1073 33.754 81.8553 33.646C81.6033 33.526 81.4053 33.37 81.2613 33.178C81.1293 32.974 81.0633 32.746 81.0633 32.494C81.0633 32.398 81.0693 32.314 81.0813 32.242C81.1053 32.158 81.1233 32.08 81.1353 32.008C81.1593 31.936 81.1713 31.87 81.1713 31.81C81.1713 31.726 81.1413 31.684 81.0813 31.684C80.9733 31.684 80.8413 31.786 80.6853 31.99C80.5413 32.194 80.3673 32.506 80.1633 32.926C80.0553 33.166 79.9413 33.442 79.8213 33.754C79.7013 34.066 79.5873 34.396 79.4793 34.744V39.586L80.4693 39.82V40H75.9873ZM100.093 30.73C100.873 30.73 101.563 30.844 102.163 31.072C102.763 31.3 103.267 31.63 103.675 32.062C104.083 32.494 104.389 33.01 104.593 33.61C104.809 34.198 104.917 34.852 104.917 35.572C104.917 36.232 104.809 36.85 104.593 37.426C104.389 37.99 104.083 38.488 103.675 38.92C103.267 39.34 102.763 39.67 102.163 39.91C101.575 40.15 100.885 40.27 100.093 40.27C99.3014 40.27 98.5994 40.15 97.9874 39.91C97.3874 39.67 96.8834 39.34 96.4754 38.92C96.0794 38.488 95.7794 37.99 95.5754 37.426C95.3714 36.85 95.2694 36.232 95.2694 35.572C95.2694 34.852 95.3774 34.198 95.5934 33.61C95.8214 33.01 96.1394 32.494 96.5474 32.062C96.9674 31.63 97.4774 31.3 98.0774 31.072C98.6774 30.844 99.3494 30.73 100.093 30.73ZM100.111 30.946C99.5954 30.946 99.1694 31.15 98.8334 31.558C98.4974 31.966 98.2454 32.518 98.0774 33.214C97.9214 33.91 97.8434 34.696 97.8434 35.572C97.8434 36.184 97.8854 36.766 97.9694 37.318C98.0534 37.858 98.1854 38.332 98.3654 38.74C98.5574 39.148 98.7974 39.472 99.0854 39.712C99.3734 39.94 99.7094 40.054 100.093 40.054C100.477 40.054 100.807 39.94 101.083 39.712C101.371 39.484 101.611 39.166 101.803 38.758C101.995 38.338 102.133 37.858 102.217 37.318C102.301 36.778 102.343 36.196 102.343 35.572C102.343 34.924 102.301 34.318 102.217 33.754C102.133 33.19 102.001 32.698 101.821 32.278C101.641 31.858 101.407 31.534 101.119 31.306C100.843 31.066 100.507 30.946 100.111 30.946Z" fill="white"/>
</svg>
