<svg width="60" height="60" viewBox="0 0 60 60" fill="none" xmlns="http://www.w3.org/2000/svg">
<circle cx="30" cy="30" r="30" fill="#E1E1E1"/>
<g clip-path="url(#clip0_206_719)">
<path d="M39.0583 8.57153H31.8356V37.764C31.8356 41.2424 29.0577 44.0995 25.6007 44.0995C22.1437 44.0995 19.3657 41.2424 19.3657 37.764C19.3657 34.348 22.0819 31.5528 25.4155 31.4287V24.0995C18.0693 24.2237 12.1431 30.2486 12.1431 37.764C12.1431 45.3418 18.1928 51.4287 25.6624 51.4287C33.1319 51.4287 39.1817 45.2796 39.1817 37.764V22.7951C41.8979 24.7827 45.2314 25.9628 48.7502 26.025V18.6958C43.3178 18.5094 39.0583 14.0374 39.0583 8.57153Z" fill="black"/>
</g>
<defs>
<clipPath id="clip0_206_719">
<rect width="42.8571" height="42.8571" fill="white" transform="translate(8.57153 8.57153)"/>
</clipPath>
</defs>
</svg>
