<svg width="60" height="60" viewBox="0 0 60 60" fill="none" xmlns="http://www.w3.org/2000/svg">
<path d="M30 21C25.0278 21 21 25.0293 21 30C21 34.9719 25.0293 39 30 39C34.9719 39 39 34.9707 39 30C39 25.0281 34.9707 21 30 21ZM30 15C38.2812 15 45 21.7113 45 30C45 38.2815 38.2887 45 30 45C21.7186 45 15 38.2887 15 30C15 21.7186 21.7113 15 30 15ZM49.5 14.2474C49.5 16.3178 47.8176 17.9975 45.75 17.9975C43.6797 17.9975 42 16.3152 42 14.2474C42 12.1797 43.6821 10.5 45.75 10.5C47.8149 10.4974 49.5 12.1797 49.5 14.2474ZM30 5.99999C22.5765 5.99999 21.3666 6.01964 17.9139 6.17339C15.5615 6.28382 13.9846 6.6002 12.5195 7.169C11.2175 7.67396 10.2783 8.27693 9.27761 9.27764C8.27306 10.2822 7.67117 11.2189 7.16825 12.5215C6.59813 13.9899 6.28185 15.5643 6.1734 17.9134C6.01815 21.2256 5.99999 22.3831 5.99999 30C5.99999 37.4235 6.01965 38.6334 6.17337 42.0858C6.28385 44.4372 6.60065 46.0164 7.16807 47.478C7.67435 48.7818 8.27855 49.7232 9.27443 50.7192C10.2829 51.7263 11.2224 52.3302 12.5127 52.8281C13.9956 53.4014 15.5715 53.7182 17.9134 53.8265C21.2256 53.9816 22.3831 53.9999 30 53.9999C37.4235 53.9999 38.6334 53.9801 42.0858 53.8265C44.4321 53.7164 46.0125 53.3987 47.478 52.8317C48.7782 52.3268 49.7226 51.7206 50.7192 50.7255C51.7278 49.7154 52.3305 48.7782 52.8291 47.4849C53.4009 46.0074 53.7183 44.4294 53.8266 42.0867C53.9817 38.7744 54 37.6167 54 30C54 22.5765 53.9802 21.3666 53.8266 17.9141C53.7162 15.5672 53.3985 13.9845 52.8309 12.5195C52.3272 11.2211 51.7221 10.279 50.7222 9.27764C49.716 8.27144 48.7818 7.67078 47.4783 7.16825C46.011 6.59861 44.4342 6.28187 42.0864 6.17342C38.7744 6.01814 37.6167 5.99999 30 5.99999ZM30 0C38.1498 0 39.1674 0.0299998 42.3675 0.18C45.5598 0.32751 47.7375 0.8325 49.65 1.575C51.6273 2.33751 53.2974 3.3675 54.9648 5.03499C56.6298 6.7025 57.66 8.37749 58.425 10.35C59.1648 12.26 59.67 14.44 59.82 17.6325C59.9625 20.8325 60 21.85 60 30C60 38.1501 59.97 39.1674 59.82 42.3675C59.6724 45.5601 59.1648 47.7375 58.425 49.65C57.6624 51.6275 56.6298 53.2973 54.9648 54.965C53.2974 56.63 51.6198 57.6599 49.65 58.4249C47.7375 59.165 45.5598 59.6699 42.3675 59.8199C39.1674 59.9624 38.1498 59.9999 30 59.9999C21.85 59.9999 20.8325 59.9699 17.6325 59.8199C14.44 59.6723 12.265 59.165 10.35 58.4249C8.37497 57.6623 6.70247 56.63 5.03499 54.965C3.3675 53.2973 2.34 51.62 1.575 49.65C0.8325 47.7375 0.33 45.5601 0.18 42.3675C0.0375005 39.1674 0 38.1501 0 30C0 21.85 0.0300005 20.8325 0.18 17.6325C0.32748 14.4375 0.8325 12.2625 1.575 10.35C2.33748 8.375 3.3675 6.7025 5.03499 5.03499C6.70247 3.3675 8.37749 2.34 10.35 1.575C12.2625 0.8325 14.4375 0.33 17.6325 0.18C20.8325 0.0374998 21.85 0 30 0Z" fill="black"/>
</svg>
