<svg width="18" height="19" viewBox="0 0 18 19" fill="none" xmlns="http://www.w3.org/2000/svg">
<path d="M4.49854 2.75C7.1159 2.75 9.2859 4.66534 9.6834 7.17087C10.5647 6.29292 11.7807 5.75 13.1235 5.75H16.4985V7.625C16.4985 10.3174 14.3159 12.5 11.6235 12.5H9.7485V16.25H8.2485V10.25H6.74854C3.84904 10.25 1.49854 7.89949 1.49854 5V2.75H4.49854ZM14.9985 7.25H13.1235C11.2596 7.25 9.7485 8.76102 9.7485 10.625V11H11.6235C13.4875 11 14.9985 9.48898 14.9985 7.625V7.25ZM4.49854 4.25H2.99854V5C2.99854 7.07106 4.67747 8.75 6.74854 8.75H8.2485V8C8.2485 5.92894 6.5696 4.25 4.49854 4.25Z" fill="white"/>
</svg>
